<?xml version="1.0" standalone="no"?>
<!DOCTYPE svg PUBLIC "-//W3C//DTD SVG 20010904//EN"
 "http://www.w3.org/TR/2001/REC-SVG-20010904/DTD/svg10.dtd">
<svg version="1.0" xmlns="http://www.w3.org/2000/svg"
 width="1601.000000pt" height="1601.000000pt" viewBox="0 0 1601.000000 1601.000000"
 preserveAspectRatio="xMidYMid meet">
<metadata>
Created by potrace 1.14, written by Peter Selinger 2001-2017
</metadata>
<g transform="translate(0.000000,1601.000000) scale(0.100000,-0.100000)"
fill="#000000" stroke="none">
<path d="M3870 15999 c-67 -7 -117 -15 -160 -24 -14 -3 -35 -8 -48 -11 -184
-38 -432 -163 -599 -302 -233 -194 -412 -477 -481 -762 -40 -159 -46 -226 -46
-472 -1 -120 -4 -188 -11 -188 -151 -1 -455 -9 -470 -13 -11 -3 -41 -8 -66
-11 -93 -13 -267 -68 -378 -122 -251 -120 -441 -283 -593 -508 -134 -200 -213
-417 -244 -671 -8 -66 -8 -11535 0 -11600 4 -27 9 -66 12 -85 4 -19 8 -42 9
-50 51 -289 264 -645 501 -836 27 -21 51 -42 54 -45 3 -3 32 -23 65 -45 190
-127 403 -208 628 -238 71 -10 987 -12 4236 -11 2280 1 4168 5 4196 10 42 6
159 34 215 50 311 89 626 326 806 606 85 133 168 318 190 424 2 11 6 32 10 47
3 15 5 30 5 33 0 2 4 19 10 37 14 50 23 196 23 386 l1 172 200 1 c110 0 214 2
230 4 17 2 51 6 78 9 26 3 92 16 145 30 472 119 855 464 1023 920 42 113 67
221 85 371 4 33 7 969 7 2080 l0 2020 40 35 c23 19 104 91 182 159 77 69 171
152 209 185 38 34 74 66 80 71 45 40 112 98 165 145 35 30 73 64 85 75 23 21
125 110 162 142 12 10 54 48 95 84 41 36 120 107 176 157 56 50 128 119 159
154 153 172 274 395 332 613 20 77 25 97 37 175 14 93 20 300 10 375 -2 16 -7
52 -10 80 -4 27 -14 77 -22 110 -8 33 -17 70 -19 82 -9 46 -66 189 -111 277
-57 111 -113 194 -207 305 -184 220 -339 347 -546 451 -91 46 -288 114 -360
125 -25 4 -47 8 -50 10 -15 9 -167 20 -281 20 l-126 0 0 855 c0 646 -3 866
-13 900 -32 116 5 77 -1549 1628 -914 913 -1508 1498 -1544 1522 -31 21 -81
44 -110 51 -42 11 -649 13 -3202 14 -1732 0 -3179 -3 -3215 -6z m5911 -829 c0
-19 1 -597 1 -1283 0 -712 4 -1266 10 -1289 32 -146 155 -269 301 -302 38 -9
388 -12 1330 -11 l1277 0 0 -787 0 -786 -32 -27 c-27 -22 -134 -116 -182 -160
-6 -5 -45 -39 -86 -75 -86 -75 -119 -104 -175 -154 -22 -20 -69 -60 -104 -89
-36 -28 -99 -84 -140 -122 -42 -39 -112 -102 -156 -140 -44 -38 -96 -84 -115
-101 -35 -32 -130 -115 -185 -163 -52 -45 -207 -182 -280 -246 -38 -34 -97
-86 -130 -115 -33 -29 -76 -67 -95 -84 -19 -17 -66 -58 -105 -91 -38 -33 -72
-63 -75 -66 -3 -3 -48 -43 -100 -89 -52 -45 -126 -110 -164 -144 -160 -140
-182 -160 -211 -185 -31 -27 -181 -158 -201 -176 -12 -11 -124 -110 -209 -185
-29 -25 -84 -74 -123 -109 -40 -35 -84 -73 -100 -84 -15 -12 -34 -29 -42 -39
-8 -9 -58 -53 -110 -98 -52 -45 -111 -96 -130 -114 -19 -17 -107 -94 -195
-171 -88 -76 -162 -142 -165 -145 -3 -3 -77 -68 -165 -145 -342 -299 -591
-521 -612 -545 -59 -67 -84 -147 -147 -462 -10 -49 -17 -81 -32 -153 -9 -38
-18 -81 -20 -95 -3 -14 -11 -53 -19 -88 -8 -34 -17 -74 -20 -90 -7 -43 -95
-455 -100 -472 -2 -8 -7 -31 -10 -50 -3 -19 -12 -64 -20 -100 -43 -197 -75
-349 -80 -380 -3 -19 -15 -73 -27 -120 -59 -244 49 -453 270 -519 68 -21 69
-21 512 5 109 6 347 19 520 29 52 3 129 8 170 10 41 2 122 7 180 10 58 3 134
8 170 10 36 3 119 7 185 10 66 3 145 7 175 10 30 3 93 7 140 10 136 8 209 37
302 120 18 17 64 57 103 90 38 33 76 67 85 75 9 8 45 40 80 71 170 148 739
646 770 673 20 17 71 62 115 101 44 38 85 74 91 80 23 20 81 72 154 135 41 36
80 70 86 75 6 6 37 33 69 60 32 28 63 55 69 60 6 6 65 57 131 115 66 58 125
110 131 115 6 6 24 21 40 35 84 73 203 178 236 208 21 19 47 41 58 49 l20 14
-3 -1683 c-1 -926 -6 -1696 -10 -1713 -16 -58 -60 -161 -92 -210 -78 -121
-154 -185 -317 -266 -9 -4 -45 -16 -80 -26 -60 -16 -279 -17 -4163 -18 -4213
-2 -4172 -2 -4250 34 -11 5 -46 21 -79 36 -176 82 -320 273 -358 475 -7 38
-11 1692 -11 5271 0 4734 2 5218 16 5240 68 104 70 288 5 399 -19 33 -20 50
-20 310 0 310 8 364 69 485 38 77 63 112 120 172 111 115 265 189 418 200 44
3 81 6 82 7 1 0 1295 1 2877 1 l2876 0 1 -35z m1586 -1314 c419 -418 760 -762
758 -764 -8 -8 -1525 -6 -1532 2 -12 11 -10 1535 2 1528 6 -3 353 -348 772
-766z m-8831 -5596 c1 -4802 2 -5181 18 -5265 18 -98 51 -220 66 -247 6 -10
10 -22 10 -28 0 -13 80 -178 116 -240 199 -343 591 -613 994 -686 19 -4 44 -9
55 -13 11 -3 1619 -7 3574 -8 1955 -2 3557 -5 3559 -8 6 -6 4 -353 -2 -385
-28 -134 -63 -218 -131 -307 -104 -139 -249 -228 -420 -257 -95 -16 -8194 -14
-8270 2 -250 53 -449 245 -515 496 -18 69 -19 241 -17 5816 1 3160 5 5759 9
5775 8 35 45 138 62 168 103 191 309 335 506 353 30 3 56 7 57 8 1 1 75 1 165
1 l162 0 2 -5175z m11264 1956 c44 -9 114 -35 170 -63 79 -39 111 -63 185
-138 210 -209 279 -357 279 -595 0 -114 -3 -133 -31 -215 -54 -156 -120 -245
-294 -396 -35 -30 -101 -88 -145 -127 l-82 -72 -212 243 c-117 133 -238 271
-270 307 -31 36 -155 178 -275 315 -120 138 -230 262 -244 278 l-25 28 24 22
c14 12 77 67 140 122 63 54 126 110 140 123 39 38 129 96 196 125 141 62 286
76 444 43z m-1027 -1559 l506 -578 -42 -37 c-23 -20 -46 -42 -52 -48 -5 -5
-44 -39 -85 -75 -41 -35 -93 -81 -116 -102 -22 -20 -67 -57 -99 -82 -32 -25
-72 -60 -90 -78 -39 -40 -79 -77 -285 -257 -91 -80 -167 -147 -170 -150 -3 -3
-77 -68 -165 -145 -88 -77 -162 -142 -165 -145 -3 -4 -79 -71 -170 -150 -91
-79 -170 -149 -176 -154 -6 -6 -37 -33 -70 -61 -32 -27 -84 -72 -114 -100 -31
-27 -72 -63 -91 -80 -142 -123 -185 -161 -195 -170 -10 -9 -120 -106 -164
-145 -10 -8 -43 -37 -75 -65 -49 -42 -213 -186 -251 -220 -6 -5 -26 -23 -45
-39 -27 -24 -153 -134 -205 -181 -6 -5 -24 -21 -40 -34 -16 -14 -60 -52 -99
-86 -38 -34 -85 -75 -104 -91 -19 -16 -42 -36 -51 -44 -8 -8 -46 -41 -82 -73
l-67 -58 -78 -4 c-43 -2 -121 -7 -173 -10 -168 -10 -333 -20 -520 -30 -63 -4
-144 -8 -180 -10 -36 -3 -121 -7 -190 -11 -69 -3 -129 -7 -135 -8 -12 -1 -13
-6 26 179 17 83 33 161 35 175 3 14 7 32 9 40 2 8 7 31 10 50 3 19 10 51 15
70 5 19 16 71 25 115 9 44 18 87 20 95 2 8 20 94 40 190 21 96 39 182 40 190
2 8 9 42 16 75 7 33 21 67 31 76 10 9 51 45 90 80 113 101 169 150 238 210 92
81 422 370 505 444 39 34 88 77 110 96 22 19 45 39 50 45 6 5 44 39 85 75 41
35 138 120 215 188 77 68 156 137 175 154 19 17 53 47 75 66 54 48 142 125
365 321 102 89 201 176 220 194 19 17 69 60 110 95 41 36 80 70 85 75 6 6 44
40 85 76 41 36 80 70 86 75 11 10 82 72 203 179 31 27 72 63 91 80 19 17 107
94 195 171 88 77 162 142 165 145 32 34 105 89 111 83 4 -5 234 -268 512 -586z"/>
<path d="M4970 11739 c-91 -8 -141 -24 -198 -63 -68 -45 -107 -90 -142 -163
-90 -185 -28 -401 149 -514 97 -63 4 -60 1648 -57 l1498 3 66 33 c85 43 148
106 190 190 32 64 34 72 34 172 -1 92 -4 112 -27 162 -63 137 -197 229 -343
237 -105 6 -2813 6 -2875 0z"/>
<path d="M4912 9438 c-67 -11 -154 -59 -207 -112 -86 -87 -121 -184 -113 -314
11 -171 128 -311 299 -355 46 -12 403 -15 2324 -15 1456 0 2290 3 2324 10 121
22 228 107 284 226 29 61 32 75 32 167 0 91 -3 106 -31 165 -49 103 -127 174
-232 213 l-57 20 -2291 1 c-1261 1 -2310 -2 -2332 -6z"/>
</g>
</svg>
