<svg height="400pt" viewBox="-19 0 400 400" width="400pt" xmlns="http://www.w3.org/2000/svg" xmlns:xlink="http://www.w3.org/1999/xlink"><linearGradient id="a"><stop offset=".322" stop-color="#a163f5"/><stop offset=".466" stop-color="#b074ee"/><stop offset=".752" stop-color="#d8a1dd"/><stop offset=".898" stop-color="#efbad3"/></linearGradient><linearGradient id="b" gradientTransform="matrix(1 0 0 -1 -125.077 456.378002)" gradientUnits="userSpaceOnUse" x1="298.841" x2="307.842" xlink:href="#a" y1="21.698" y2="414.737"/><linearGradient id="c" gradientTransform="matrix(1 0 0 -1 -125.077 456.378002)" gradientUnits="userSpaceOnUse" x1="258.729" x2="267.73" xlink:href="#a" y1="22.616" y2="415.656"/><linearGradient id="d" gradientTransform="matrix(1 0 0 -1 -125.077 456.378002)" gradientUnits="userSpaceOnUse" x1="280.528" x2="289.529" xlink:href="#a" y1="22.117" y2="415.157"/><path d="m350.515625 137.167969c-6.636719-7.628907-16.058594-12.277344-26.152344-12.910157-2.015625-.128906-4.035156-.097656-6.046875.089844v-41.609375c0-2.65625-1.058594-5.207031-2.9375-7.082031l-72.738281-72.546875c-.03125-.03125-.0625-.058594-.09375-.085937-1.878906-1.933594-4.460937-3.023438-7.15625-3.023438-.285156 0-.566406.0195312-.847656.0429688-.285157-.0234376-.570313-.0429688-.855469-.0429688h-152.75c-20.289062.0234375-36.726562 16.464844-36.75 36.753906v7.433594h-7.433594c-20.289062.023438-36.7304685 16.460938-36.753906 36.75v282.308594c.0234375 20.289062 16.464844 36.730468 36.753906 36.753906h200.625c20.285156-.023438 36.726563-16.464844 36.75-36.753906v-7.433594h7.433594c20.289062-.023438 36.730469-16.460938 36.753906-36.75v-99.09375l30.640625-27.011719c15.6875-13.882812 17.238281-37.828125 3.464844-53.613281zm-47.28125 69.441406c-1.085937.640625-2.042969 1.484375-2.8125 2.480469l-20.019531 17.648437-49.28125 43.148438-32.3125 1.84375 6.570312-31.109375 81.753906-71.875 25.722657 29.382812zm-57.84375-172.511719 38.933594 38.828125h-38.933594zm8.738281 329.148438c-.007812 9.25-7.503906 16.742187-16.75 16.753906h-200.625c-9.25-.011719-16.742187-7.503906-16.753906-16.753906v-282.308594c.011719-9.246094 7.503906-16.742188 16.753906-16.75h7.433594v254.875c.023438 20.289062 16.460938 36.726562 36.75 36.75h173.191406zm44.1875-44.183594c-.011718 9.246094-7.503906 16.742188-16.753906 16.75h-200.625c-9.246094-.007812-16.742188-7.503906-16.75-16.75v-259.164062c2.398438-3.429688 2.398438-7.996094 0-11.425782v-11.71875c.007812-9.25 7.503906-16.742187 16.75-16.753906h144.453125v62.925781c0 5.523438 4.476563 10 10 10h62.925781v39.429688c-.53125.417969-1.050781.847656-1.5625 1.300781l-13.832031 12.160156c-1.144531.660156-2.148437 1.542969-2.949219 2.59375l-90.296875 79.386719c-1.621093 1.421875-2.738281 3.332031-3.183593 5.441406l-9.960938 47.15625c-.621094 2.949219.117188 6.019531 2.015625 8.363281 1.898437 2.339844 4.753906 3.703126 7.769531 3.703126.1875 0 .378906-.007813.570313-.019532l48.800781-2.785156c2.222656-.125 4.339844-.992188 6.015625-2.460938l50.792969-44.464843 5.816406-5.128907zm37.414063-141.105469-7.878907 6.945313-25.699218-29.363282 7.8125-6.863281c7.488281-6.585937 18.898437-5.851562 25.484375 1.636719l.023437.03125 1.902344 2.171875c6.53125 7.492187 5.800781 18.851563-1.644531 25.441406zm0 0" fill="url(#b)"/><path d="m105.53125 126.578125h70.769531c5.519531 0 10-4.476563 10-10s-4.480469-10-10-10h-70.769531c-5.519531 0-10 4.476563-10 10s4.480469 10 10 10zm0 0" fill="url(#c)"/><path d="m227.289062 173.96875c0-5.523438-4.476562-10-10-10h-111.757812c-5.519531 0-10 4.476562-10 10s4.480469 10 10 10h111.757812c5.523438 0 10-4.476562 10-10zm0 0" fill="url(#d)"/></svg>